<svg xmlns="http://www.w3.org/2000/svg" xmlns:xlink="http://www.w3.org/1999/xlink" width="88" height="88" viewBox="0 0 88 88"><defs><style>.a{fill:#fff;}.b,.c{stroke:none;}.c{fill:#ffc800;}.d{filter:url(#a);}</style><filter id="a" x="0" y="0" width="88" height="88" filterUnits="userSpaceOnUse"><feOffset dy="3" input="SourceAlpha"/><feGaussianBlur stdDeviation="3" result="b"/><feFlood flood-opacity="0.161"/><feComposite operator="in" in2="b"/><feComposite in="SourceGraphic"/></filter></defs><g class="d" transform="matrix(1, 0, 0, 1, 0, 0)"><g class="a" transform="translate(9 6)"><path class="b" d="M 53.13608932495117 66.01560974121094 C 52.93349075317383 66.01563262939453 52.73868942260742 65.94902038574219 52.55709838867188 65.81761169433594 L 36.7586784362793 54.38576889038086 C 36.24375152587891 54.01316070556641 35.6356086730957 53.81621170043945 35 53.81621170043945 C 34.3643913269043 53.81621170043945 33.75624847412109 54.01316070556641 33.2413215637207 54.38578033447266 L 17.44289970397949 65.81761169433594 C 17.26132965087891 65.94899749755859 17.06650924682617 66.01560974121094 16.86383056640625 66.01560974121094 C 16.5536994934082 66.01560974121094 16.23996925354004 65.85562133789062 16.04507064819336 65.59806060791016 C 15.91409015655518 65.42497253417969 15.78160953521729 65.13487243652344 15.89430046081543 64.73574066162109 L 21.44551086425781 45.07535171508789 C 21.7726993560791 43.91656875610352 21.3782901763916 42.67966079711914 20.44070053100586 41.92416000366211 L 4.860010147094727 29.3694896697998 C 4.355979919433594 28.96335983276367 4.487649917602539 28.4259090423584 4.540019989013672 28.27086067199707 C 4.592380046844482 28.11581993103027 4.813509941101074 27.60857963562012 5.460569858551025 27.59119033813477 L 24.88005065917969 27.06912994384766 C 26.13327980041504 27.03542900085449 27.24365997314453 26.21437072753906 27.64308929443359 25.02602958679199 L 34.05212020874023 5.958679676055908 C 34.26462936401367 5.326429843902588 34.83135986328125 5.277289867401123 35 5.277289867401123 C 35.16864013671875 5.277289867401123 35.73537063598633 5.326429843902588 35.94787979125977 5.958679676055908 L 42.35691070556641 25.02602958679199 C 42.75635147094727 26.21438026428223 43.86672973632812 27.03542900085449 45.11994934082031 27.06912040710449 L 64.53943634033203 27.59119033813477 C 65.18650054931641 27.60857963562012 65.40763092041016 28.11581993103027 65.45999145507812 28.27086067199707 C 65.51235198974609 28.4259090423584 65.64402008056641 28.96335029602051 65.13999176025391 29.3694896697998 L 49.55929946899414 41.92414855957031 C 48.62171936035156 42.67966079711914 48.22731018066406 43.91658020019531 48.55450057983398 45.07535171508789 L 54.1057014465332 64.73574066162109 C 54.21836090087891 65.13475799560547 54.08589172363281 65.42482757568359 53.95492935180664 65.59790802001953 C 53.75999069213867 65.85552978515625 53.44623184204102 66.01558685302734 53.13608932495117 66.01560974121094 Z"/><path class="c" d="M 35 6.277290344238281 L 28.59096908569336 25.34463119506836 C 28.05839920043945 26.92910003662109 26.57788848876953 28.02384948730469 24.90692901611328 28.06875991821289 L 5.487457275390625 28.5908203125 C 5.487449645996094 28.5908203125 5.487449645996094 28.5908203125 5.487442016601562 28.5908203125 C 5.487442016601562 28.59082412719727 5.487442016601562 28.59082794189453 5.487442016601562 28.59082794189453 C 5.487442016601562 28.59082794189453 5.487442016601562 28.59082794189453 5.487442016601562 28.5908317565918 L 21.06813812255859 41.14550018310547 C 22.31826019287109 42.15283203125 22.84413909912109 43.80205917358398 22.40787887573242 45.34708023071289 L 16.85668182373047 65.00746917724609 L 32.65507125854492 53.57563781738281 C 33.34164810180664 53.07881927490234 34.15251159667969 52.81620788574219 35 52.81620788574219 C 35.84746932983398 52.81620788574219 36.65832901000977 53.07881164550781 37.34489822387695 53.57563018798828 L 53.14330291748047 65.00745391845703 C 53.14330673217773 65.0074462890625 53.143310546875 65.0074462890625 53.14331817626953 65.00746917724609 L 47.59210968017578 45.34706115722656 C 47.15587997436523 43.80203247070312 47.6817626953125 42.1528205871582 48.93186950683594 41.14549255371094 L 64.51255035400391 28.5908317565918 C 64.51255035400391 28.59082794189453 64.51255798339844 28.59082412719727 64.51255798339844 28.5908203125 C 64.51255798339844 28.5908203125 64.51255798339844 28.5908203125 64.51255798339844 28.5908203125 L 45.09305953979492 28.06875991821289 C 43.42210006713867 28.02381896972656 41.94160079956055 26.92908096313477 41.40903091430664 25.34463882446289 L 35 6.277290344238281 M 35 4.277290344238281 C 35.79519653320312 4.277290344238281 36.59039688110352 4.731552124023438 36.89577102661133 5.640068054199219 L 43.30480194091797 24.70742034912109 C 43.57220077514648 25.50296020507812 44.3078498840332 26.04692077636719 45.14682006835938 26.06948089599609 L 64.56630706787109 26.5915412902832 C 66.4259033203125 26.64154052734375 67.21595764160156 28.98094940185547 65.76743316650391 30.14815902709961 L 50.18674087524414 42.70281982421875 C 49.56272888183594 43.20565032958984 49.29911041259766 44.03239059448242 49.51686096191406 44.80361938476562 L 55.06806945800781 64.46401214599609 C 55.45864486694336 65.84727478027344 54.35981750488281 67.01560974121094 53.13616943359375 67.01560974121094 C 52.74562835693359 67.01560974121094 52.34252166748047 66.89669036865234 51.97087097167969 66.62776184082031 L 36.17245101928711 55.19591903686523 C 35.82262420654297 54.94277954101562 35.41131210327148 54.81620788574219 35 54.81620788574219 C 34.58868789672852 54.81620788574219 34.17737579345703 54.94277954101562 33.82754898071289 55.19591903686523 L 18.02912902832031 66.62776184082031 C 17.65756988525391 66.89662170410156 17.25428009033203 67.01560974121094 16.86383056640625 67.01560974121094 C 15.64006423950195 67.01560974121094 14.54132461547852 65.84738159179688 14.93193054199219 64.46401214599609 L 20.48313140869141 44.80361938476562 C 20.70090103149414 44.03239059448242 20.43727111816406 43.20565032958984 19.81325912475586 42.70282745361328 L 4.232566833496094 30.14815902709961 C 2.784027099609375 28.98096084594727 3.5740966796875 26.64154052734375 5.433700561523438 26.5915412902832 L 24.85317993164062 26.06948089599609 C 25.6921501159668 26.04692840576172 26.42779922485352 25.50296020507812 26.6952018737793 24.70742034912109 L 33.10422897338867 5.640068054199219 C 33.40960311889648 4.731552124023438 34.20480346679688 4.277290344238281 35 4.277290344238281 Z"/></g></g></svg>