<svg xmlns="http://www.w3.org/2000/svg" xmlns:xlink="http://www.w3.org/1999/xlink" width="100" height="100" viewBox="0 0 100 100"><defs><style>.a{fill:url(#a);}.b{filter:url(#b);}</style><linearGradient id="a" x1="0.63" y1="0.33" x2="0.5" y2="0.746" gradientUnits="objectBoundingBox"><stop offset="0" stop-color="#ffe600"/><stop offset="1" stop-color="#f3ad3d"/></linearGradient><filter id="b" x="0" y="0" width="100" height="100" filterUnits="userSpaceOnUse"><feOffset dy="3" input="SourceAlpha"/><feGaussianBlur stdDeviation="5" result="c"/><feFlood flood-opacity="0.161"/><feComposite operator="in" in2="c"/><feComposite in="SourceGraphic"/></filter></defs><g transform="translate(15 12)"><g class="b" transform="matrix(1, 0, 0, 1, -15, -12)"><path class="a" d="M33.1,5.64a2,2,0,0,1,3.792,0L43.3,24.707a2,2,0,0,0,1.842,1.362l19.419.522a2,2,0,0,1,1.2,3.557L50.187,42.7a2,2,0,0,0-.67,2.1l5.551,19.66a2,2,0,0,1-3.1,2.164L36.172,55.2a2,2,0,0,0-2.345,0l-15.8,11.432a2,2,0,0,1-3.1-2.164L20.483,44.8a2,2,0,0,0-.67-2.1L4.233,30.148a2,2,0,0,1,1.2-3.557l19.419-.522A2,2,0,0,0,26.7,24.707Z" transform="translate(15 12)"/></g></g></svg>